<svg width="1920" height="192" viewBox="0 0 1920 192" fill="none" xmlns="http://www.w3.org/2000/svg">
<path opacity="0.25" d="M0 0L0 74.064C76.464 109.584 165.744 125.536 252.8 118.864C365.376 110.272 470.928 65.568 583.68 58.864C701.824 51.888 819.744 85.872 932.8 115.28C1043.63 144.08 1154.08 155.088 1267.84 136.208C1325.68 126.608 1379.6 107.664 1434.96 89.264C1583.18 40 1780.8 -22.864 1920 83.952V0L0 0Z" fill="#161B22"/>
<path opacity="0.5" d="M0 0L0 25.296C20.8 59.072 44.224 90.976 76.304 115.28C159.056 178.032 264 177.6 359.328 146.528C409.168 130.288 455.472 104.816 502.8 82.848C568.272 52.448 638.368 9.248 712.128 3.376C770.144 -1.184 825.568 18.448 869.888 53.872C920.72 94.496 969.6 153.072 1035.7 170.672C1100.4 187.936 1165.86 159.968 1226.3 131.824C1286.75 103.68 1346.56 69.424 1413.38 62.944C1508.94 53.584 1594.62 99.552 1683.62 125.088C1731.94 138.944 1778.02 134.96 1822.96 113.088C1858.85 95.664 1899.76 70 1920 34.304V0L0 0Z" fill="#161B22"/>
<path d="M0 0L0 9.008C239.888 94.4 502.544 114.112 761.328 68.112C830.128 55.888 896.096 35.92 965.504 25.776C1059.9 11.968 1145.47 45.36 1230.4 82.416C1324.69 123.552 1417.6 152.384 1521.92 144C1660.37 132.8 1797.86 70.864 1920 8.304V0L0 0Z" fill="#161B22"/>
</svg>
